<svg width="200" height="200" viewBox="0 0 200 200" fill="none" xmlns="http://www.w3.org/2000/svg">
    <g>
        <path d="M100 15.7727L186.278 64.2452" stroke="#30A3B2" stroke-width="12" />
        <path d="M186.278 64.2452V139.665" stroke="#30A3B2" stroke-width="14" />
        <path d="M186.278 142.04L100 187.724" stroke="#30A3B2" stroke-width="14" />
        <path d="M100 187.724L13.7217 142.04" stroke="#30A3B2" stroke-width="14" />
        <path d="M13.7217 142.04V64.2452" stroke="#30A3B2" stroke-width="14" />
        <path d="M13.7217 64.2452L100 15.7727" stroke="#30A3B2" stroke-width="12" />
        <path d="M100 13.9656V98.0451" stroke="#30A3B2" stroke-width="8" />
        <path d="M186.278 64.2452L100 108.001" stroke="#30A3B2" stroke-width="14" />
        <path d="M186.279 143.556L100 98.9469" stroke="#30A3B2" stroke-width="8" />
        <path d="M100 186.034L100 98.0451" stroke="#30A3B2" stroke-width="17" />
        <path d="M13.7217 143.556L100 98.9469" stroke="#30A3B2" stroke-width="8" />
        <path d="M13.7217 64.2452L100 108.001" stroke="#30A3B2" stroke-width="14" />
        <path
            d="M100 27.9313C107.578 27.9313 113.722 21.6787 113.722 13.9656C113.722 6.25263 107.578 0 100 0C92.4217 0 86.2783 6.25263 86.2783 13.9656C86.2783 21.6787 92.4217 27.9313 100 27.9313Z"
            fill="#2A9CAB" />
        <path
            d="M186.278 78.2109C193.857 78.2109 200 71.9582 200 64.2452C200 56.5322 193.857 50.2796 186.278 50.2796C178.7 50.2796 172.557 56.5322 172.557 64.2452C172.557 71.9582 178.7 78.2109 186.278 78.2109Z"
            fill="#2A9CAB" />
        <path
            d="M186.277 156.005C193.856 156.005 199.999 149.753 199.999 142.04C199.999 134.327 193.856 128.074 186.277 128.074C178.699 128.074 172.556 134.327 172.556 142.04C172.556 149.753 178.699 156.005 186.277 156.005Z"
            fill="#2A9CAB" />
        <path
            d="M100 199.999C107.578 199.999 113.722 193.746 113.722 186.033C113.722 178.32 107.578 172.068 100 172.068C92.4217 172.068 86.2783 178.32 86.2783 186.033C86.2783 193.746 92.4217 199.999 100 199.999Z"
            fill="#2A9CAB" />
        <path
            d="M13.7217 156.005C21.3 156.005 27.4434 149.753 27.4434 142.04C27.4434 134.327 21.3 128.074 13.7217 128.074C6.14341 128.074 0 134.327 0 142.04C0 149.753 6.14341 156.005 13.7217 156.005Z"
            fill="#2A9CAB" />
        <path
            d="M13.7217 78.2109C21.3 78.2109 27.4434 71.9582 27.4434 64.2452C27.4434 56.5322 21.3 50.2796 13.7217 50.2796C6.14341 50.2796 0 56.5322 0 64.2452C0 71.9582 6.14341 78.2109 13.7217 78.2109Z"
            fill="#2A9CAB" />
        <path
            d="M99.9999 121.85C111.046 121.85 120 112.896 120 101.85C120 90.8042 111.046 81.8498 99.9999 81.8498C88.9543 81.8498 80 90.8042 80 101.85C80 112.896 88.9543 121.85 99.9999 121.85Z"
            fill="#2A9CAB" />
    </g>
</svg>
